<svg xmlns="http://www.w3.org/2000/svg" viewBox="0 0 394 394" fill="none">
    <mask id="mask0_2_5" style="mask-type:alpha" maskUnits="userSpaceOnUse" x="0" y="0" width="394" height="394">
        <path fill-rule="evenodd" clip-rule="evenodd" d="M45.3408 201.15C46.1857 218.665 50.1097 236.058 57.1134 252.449C31.7943 253.022 9.89829 276.254 23.0785 297.88C31.2019 311.211 41.0272 323.795 52.554 335.321C130.638 413.405 257.238 413.405 335.321 335.321C413.405 257.238 413.405 130.638 335.321 52.554C323.793 41.0272 311.209 31.2019 297.88 23.0782C276.254 9.89818 253.022 31.7941 252.449 57.1132C236.058 50.1099 218.665 46.1855 201.15 45.3406C199.611 13.4189 167.906 -6.87614 137.25 2.15581C106.245 11.2905 77.0183 28.0898 52.554 52.554C28.0898 77.0183 11.2905 106.245 2.15584 137.25C-6.87616 167.906 13.4187 199.61 45.3408 201.15ZM45.3408 201.15C43.3898 160.71 57.8562 119.626 88.7408 88.7407C119.626 57.8562 160.71 43.3898 201.15 45.3406C203.102 85.7812 188.635 126.867 157.751 157.751C126.867 188.635 85.7812 203.102 45.3408 201.15ZM252.449 57.1132C269.408 64.3589 285.296 74.9017 299.133 88.7405C357.232 146.839 357.232 241.037 299.133 299.133C241.034 357.232 146.84 357.232 88.7408 299.133C74.9019 285.296 64.3591 269.408 57.1134 252.449C106.753 251.323 156.055 231.82 193.937 193.937C231.82 156.055 251.323 106.753 252.449 57.1132Z" fill="black"/>
    </mask>
    <g mask="url(#mask0_2_5)">
        <path d="M83.5 443C216.877 443 325 334.205 325 200C325 65.7948 216.877 -43 83.5 -43C-49.8768 -43 -158 65.7948 -158 200C-158 334.205 -49.8768 443 83.5 443Z" fill="#FCD116"/>
        <path d="M217 426C294.32 426 357 363.32 357 286C357 208.68 294.32 146 217 146C139.68 146 77 208.68 77 286C77 363.32 139.68 426 217 426Z" fill="#CE1126"/>
        <path d="M360 379C472.666 379 564 286.995 564 173.5C564 60.0055 472.666 -32 360 -32C247.334 -32 156 60.0055 156 173.5C156 286.995 247.334 379 360 379Z" fill="#002B7F"/>
    </g>
</svg>
